<?xml version="1.0" standalone="no"?><!DOCTYPE svg PUBLIC "-//W3C//DTD SVG 1.1//EN" "http://www.w3.org/Graphics/SVG/1.1/DTD/svg11.dtd"><svg t="1626878415008" class="icon" viewBox="0 0 1056 1024" version="1.1" xmlns="http://www.w3.org/2000/svg" p-id="3953" xmlns:xlink="http://www.w3.org/1999/xlink" width="206.25" height="200"><defs><style type="text/css">@font-face { font-family: feedback-iconfont; src: url("//at.alicdn.com/t/font_1031158_1uhr8ri0pk5.eot?#iefix") format("embedded-opentype"), url("//at.alicdn.com/t/font_1031158_1uhr8ri0pk5.woff2") format("woff2"), url("//at.alicdn.com/t/font_1031158_1uhr8ri0pk5.woff") format("woff"), url("//at.alicdn.com/t/font_1031158_1uhr8ri0pk5.ttf") format("truetype"), url("//at.alicdn.com/t/font_1031158_1uhr8ri0pk5.svg#iconfont") format("svg"); }
</style></defs><path d="M1.248 0h1024v1024h-1024z" fill-opacity="0" p-id="3954"></path><path d="M849.248 1024h-672c-41.6 0-76.8-35.2-73.6-80V80c0-41.6 32-76.8 73.6-80h521.6l224 236.8v710.4c0 41.6-32 76.8-73.6 76.8z" fill="#F5F1EC" p-id="3955"></path><path d="M922.848 313.6h-819.2V80c0-41.6 32-76.8 73.6-80h521.6l224 236.8v76.8z" fill="#E0B773" p-id="3956"></path><path d="M922.848 236.8h-150.4c-41.6 0-76.8-35.2-73.6-80V0l112 118.4 112 118.4z" fill="#F5F1EC" p-id="3957"></path><path d="M426.848 464v409.6h172.8V464h-172.8z m150.4 140.8h-64v41.6h64v44.8h-64v41.6h64v44.8h-64v44.8h-64v-44.8h64v-44.8h-64v-41.6h64v-44.8h-64v-41.6h64v-41.6h-64v-44.8h64v44.8h64v41.6z" fill="#E0B773" p-id="3958"></path></svg>