<?xml version="1.0" standalone="no"?><!DOCTYPE svg PUBLIC "-//W3C//DTD SVG 1.1//EN" "http://www.w3.org/Graphics/SVG/1.1/DTD/svg11.dtd"><svg t="1626878384150" class="icon" viewBox="0 0 1024 1024" version="1.1" xmlns="http://www.w3.org/2000/svg" p-id="3666" xmlns:xlink="http://www.w3.org/1999/xlink" width="200" height="200"><defs><style type="text/css">@font-face { font-family: feedback-iconfont; src: url("//at.alicdn.com/t/font_1031158_1uhr8ri0pk5.eot?#iefix") format("embedded-opentype"), url("//at.alicdn.com/t/font_1031158_1uhr8ri0pk5.woff2") format("woff2"), url("//at.alicdn.com/t/font_1031158_1uhr8ri0pk5.woff") format("woff"), url("//at.alicdn.com/t/font_1031158_1uhr8ri0pk5.ttf") format("truetype"), url("//at.alicdn.com/t/font_1031158_1uhr8ri0pk5.svg#iconfont") format("svg"); }
</style></defs><path d="M704 0H192a64 64 0 0 0-64 64v320h576a64 64 0 0 1 64 64v416a64 64 0 0 1-64 64H128v32a64 64 0 0 0 64 64h768a64 64 0 0 0 64-64V320z" fill="#EAEAEA" p-id="3667"></path><path d="M704 0v256a64 64 0 0 0 64 64h256z" fill="#434854" p-id="3668"></path><path d="M768 320l256 256V320H768z" opacity=".1" p-id="3669"></path><path d="M704 832a32 32 0 0 1-32 32H32a32 32 0 0 1-32-32V480a32 32 0 0 1 32-32h640a32 32 0 0 1 32 32z" fill="#BAF1CD" p-id="3670"></path><path d="M160 640a32 32 0 0 1 0-64h48a16 16 0 0 0 0-32h-48a64 64 0 0 0 0 128 32 32 0 0 1 0 64h-48a16 16 0 0 0 0 32h48a64 64 0 0 0 0-128z m246.08-96a16 16 0 0 0-20.8 8.96l-64 155.84-64-155.84a16 16 0 1 0-29.44 11.84l77.76 192a24.96 24.96 0 0 0 3.2 4.8 12.8 12.8 0 0 0 4.8 3.2 12.8 12.8 0 0 0 4.8 0h5.76l3.2-2.24a13.12 13.12 0 0 0 5.44-6.4l77.76-192a15.68 15.68 0 0 0-4.48-20.16zM576 672h-80a16 16 0 0 0 0 32h48a32 32 0 0 1-32 32h-32a32 32 0 0 1-32-32v-96a32 32 0 0 1 32-32h32a32 32 0 0 1 32 32 16 16 0 0 0 32 0 64 64 0 0 0-64-64h-32a64 64 0 0 0-64 64v96a64 64 0 0 0 64 64h32a64 64 0 0 0 64-64 16 16 0 0 0 0-32z" fill="#FFFFFF" p-id="3671"></path></svg>