<svg viewBox="0 0 1024 1024" version="1.1" xmlns="http://www.w3.org/2000/svg" p-id="15865"
    xmlns:xlink="http://www.w3.org/1999/xlink" width="25" height="25">
  <path d="M986.862933 212.753067H37.102933C16.622933 212.753067 0 196.130133 0 175.684267c0-20.411733 16.622933-37.034667 37.102933-37.034667h949.76c20.48 0 37.102933 16.622933 37.102934 37.034667 0 20.445867-16.622933 37.0688-37.102934 37.0688zM730.794667 204.458667c-11.9808 0-23.790933-5.802667-30.890667-16.520534L623.8208 74.069333h-223.6416L324.096 187.938133c-11.3664 17.066667-34.4064 21.6064-51.473067 10.274134a36.9664 36.9664 0 0 1-10.274133-51.336534l87.108267-130.389333c6.8608-10.308267 18.432-16.4864 30.856533-16.4864h263.3728c12.3904 0 23.995733 6.178133 30.856533 16.4864l87.074134 130.389333a36.9664 36.9664 0 0 1-30.8224 57.582934zM760.354133 1024H263.645867a129.877333 129.877333 0 0 1-129.877334-129.6384V181.8624a37.0688 37.0688 0 0 1 74.205867 0v712.465067c0 30.651733 24.9856 55.569067 55.671467 55.569066h496.7424c30.685867 0 55.671467-24.951467 55.671466-55.569066V181.8624a37.0688 37.0688 0 0 1 74.205867 0v712.465067A129.979733 129.979733 0 0 1 760.354133 1024z m-425.642666-144.896a37.102933 37.102933 0 0 1-37.137067-37.034667V328.840533a37.102933 37.102933 0 0 1 74.205867 0V842.069333c0 20.445867-16.622933 37.034667-37.0688 37.034667z m177.322666 0c-20.48 0-37.102933-16.5888-37.102933-37.034667V328.840533a37.0688 37.0688 0 0 1 74.205867 0V842.069333a37.137067 37.137067 0 0 1-37.102934 37.034667z m177.2544 0a37.102933 37.102933 0 0 1-37.137066-37.034667V328.840533a37.102933 37.102933 0 0 1 74.24 0V842.069333c0 20.445867-16.622933 37.034667-37.102934 37.034667z"
    p-id="15866"></path>
</svg>