<svg version="1.1" xmlns="http://www.w3.org/2000/svg" width="1024" height="1024" viewBox="0 0 1024 1024">
<path d="M512.005 910.263q-44.3-45.97-132.904-137.91-89.432-91.942-223.165-229.852-34.269-36.776-51.822-81.068-17.554-43.463-17.554-94.447 0-52.656 18.388-96.96 17.554-45.124 54.329-82.746 35.941-36.776 79.404-55.164t94.447-18.388q25.918 0 50.15 5.014t47.642 15.881q23.403 10.037 43.463 25.074 20.060 14.208 37.617 33.425 17.554-19.223 37.617-33.425 20.895-15.044 43.463-25.074 23.403-10.864 47.642-15.881t50.15-5.014q50.985 0 94.447 18.388t79.404 55.164q35.941 37.617 54.329 82.746 18.388 44.3 18.388 96.96 0 53.488-19.223 98.627-18.388 45.97-56.001 82.746-58.507 60.18-146.269 150.448t-203.946 211.464zM333.137 153.842q-42.626 0-79.404 15.881-36.776 15.044-67.702 45.97-30.1 31.761-45.135 69.369t-15.044 81.911q0 42.626 14.208 79.404 15.044 36.776 43.463 67.702 55.164 56.836 137.075 141.255 81.911 85.25 191.403 198.090 40.12-41.799 120.359-125.374 81.068-83.583 202.27-208.117 31.761-31.761 47.642-69.369 15.881-38.448 15.881-83.583 0-44.3-15.044-81.911t-45.135-69.369q-30.925-30.925-67.702-45.97-36.776-15.881-79.404-15.881-24.24 0-46.805 5.855-23.403 5.014-44.3 15.881-21.736 10.864-39.283 25.918-18.388 15.044-33.425 35.104-2.508 3.343-6.687 8.359-3.343 5.014-8.359 12.538-1.673-3.343-5.855-8.359-3.343-5.014-9.194-12.538-15.044-20.060-33.425-35.104t-39.283-25.918q-21.736-10.864-44.3-15.881-22.568-5.855-46.805-5.855z"></path>
</svg>
