<svg version="1.1" xmlns="http://www.w3.org/2000/svg" width="1024" height="1024" viewBox="0 0 1024 1024">
<path fill="#f44335" d="M703.998 120.485c-76.708 0.704-145.259 35.038-191.72 88.947l-0.28 0.333c-46.741-54.242-115.292-88.576-191.878-89.279l-0.122-0.001c-0.669-0.007-1.46-0.011-2.251-0.011-128.307 0-232.32 104.013-232.32 232.32 0 0.792 0.004 1.582 0.012 2.372l-0.001-0.121c0 160 144.96 292.8 364.8 492.48l61.76 56 61.76-56.32c219.84-199.36 364.8-330.56 364.8-491.84 0.009-0.764 0.014-1.667 0.014-2.571 0-128.307-104.013-232.32-232.32-232.32-0.793 0-1.584 0.004-2.375 0.012l0.12-0.001z"></path>
</svg>
