<svg viewBox="0 0 1024 1024" version="1.1" xmlns="http://www.w3.org/2000/svg" p-id="5791"
    xmlns:xlink="http://www.w3.org/1999/xlink" width="25" height="25">
  <path d="M942.383 455.788h-860.448c-27.952 0-50.615 22.638-50.615 50.615 0 27.925 22.662 50.615 50.615 50.615h860.448c27.952 0 50.614-22.688 50.614-50.615 0-27.977-22.662-50.615-50.614-50.615zM81.935 253.329h860.448c27.952 0 50.614-22.688 50.614-50.615 0-27.977-22.662-50.615-50.614-50.615h-860.448c-27.952 0-50.615 22.637-50.615 50.615 0.001 27.927 22.663 50.615 50.615 50.615zM942.383 759.475h-860.448c-27.952 0-50.615 22.638-50.615 50.615 0 27.925 22.662 50.615 50.615 50.615h860.448c27.952 0 50.614-22.689 50.614-50.615 0-27.977-22.662-50.615-50.614-50.615z"
    p-id="5792"></path>
</svg>