<svg viewBox="0 0 1024 1024" version="1.1" xmlns="http://www.w3.org/2000/svg" p-id="4716"
    xmlns:xlink="http://www.w3.org/1999/xlink" width="25" height="25">
  <path d="M218.847334 416.283008c51.827389 0 93.843318 42.014906 93.843318 93.843318s-42.014906 93.843318-93.843318 93.843318-93.843318-42.014906-93.843318-93.843318S167.018921 416.283008 218.847334 416.283008z"
    p-id="4717" ></path>
  <path d="M510.803755 416.283008c51.827389 0 93.843318 42.014906 93.843318 93.843318s-42.014906 93.843318-93.843318 93.843318-93.843318-42.014906-93.843318-93.843318S458.975343 416.283008 510.803755 416.283008z"
    p-id="4718" ></path>
  <path d="M510.803755 416.283008c51.827389 0 93.843318 42.014906 93.843318 93.843318s-42.014906 93.843318-93.843318 93.843318-93.843318-42.014906-93.843318-93.843318S458.975343 416.283008 510.803755 416.283008z"
    p-id="4719" ></path>
  <path d="M802.760177 416.283008c51.827389 0 93.843318 42.014906 93.843318 93.843318s-42.014906 93.843318-93.843318 93.843318-93.843318-42.014906-93.843318-93.843318S750.932788 416.283008 802.760177 416.283008z"
    p-id="4720" ></path>
</svg>