<svg viewBox="0 0 1025 1024" version="1.1" xmlns="http://www.w3.org/2000/svg" p-id="3947"
    xmlns:xlink="http://www.w3.org/1999/xlink" width="25.0244140625" height="25">
  <path d="M1023.431269 563.629139c0 6.778463-5.495802 12.274265-12.274265 12.274265L12.78567 575.903404c-6.778463 0-12.274265-5.495802-12.274265-12.274265L0.511404 460.312558c0-6.778463 5.495802-12.274265 12.274265-12.274265l998.371334 0c6.778463 0 12.274265 5.495802 12.274265 12.274265L1023.431269 563.629139z"
    p-id="3948" ></path>
  <path d="M563.630139 0.511428c6.778463 0 12.274265 5.495802 12.274265 12.274265l0 998.370312c0 6.779486-5.495802 12.274265-12.274265 12.274265L460.313558 1023.43027c-6.778463 0-12.274265-5.494779-12.274265-12.274265L448.039293 12.785693c0-6.778463 5.495802-12.274265 12.274265-12.274265L563.630139 0.511428z"
    p-id="3949" ></path>
</svg>